<?xml version="1.0" standalone="no"?><!DOCTYPE svg PUBLIC "-//W3C//DTD SVG 1.1//EN" "http://www.w3.org/Graphics/SVG/1.1/DTD/svg11.dtd"><svg t="1557146008155" class="icon" style="" viewBox="0 0 1024 1024" version="1.1" xmlns="http://www.w3.org/2000/svg" p-id="7651" xmlns:xlink="http://www.w3.org/1999/xlink" width="48" height="48"><defs><style type="text/css"></style></defs><path d="M901.486 961.994h-78.995c-20.604 0-37.3-16.694-37.3-37.299s16.695-37.3 37.3-37.3h64.91V707.672c0-20.604 16.694-37.299 37.3-37.299 20.604 0 37.299 16.694 37.299 37.299V901.48c0 33.366-27.148 60.514-60.514 60.514z m-245.847 0h-30.477c-20.604 0-37.3-16.694-37.3-37.299s16.695-37.3 37.3-37.3h27.877c0.863 0 1.725 0.024 2.574 0.085l0.025-0.085c20.604 0 37.299 16.694 37.299 37.3 0.001 20.605-16.695 37.299-37.298 37.299z m269.062-570.203c-20.605 0-37.3-16.695-37.3-37.3V136.606H674.506c-20.604 0-37.299-16.695-37.299-37.299 0-20.605 16.695-37.3 37.299-37.3h226.98c33.365 0 60.514 27.149 60.514 60.515v231.969c0 20.605-16.694 37.3-37.299 37.3zM99.3 388.464c-20.605 0-37.3-16.695-37.3-37.3V122.521c0-33.366 27.149-60.515 60.515-60.515h220.35c20.605 0 37.3 16.695 37.3 37.3 0 20.604-16.695 37.299-37.3 37.299H136.6v214.558c0 20.606-16.695 37.301-37.3 37.301zM298.231 961.994H124.167C89.89 961.994 62 934.104 62 899.828V725.764c0-34.276 27.89-62.166 62.166-62.166h174.065c34.276 0 62.167 27.89 62.167 62.166v174.064c0 34.276-27.89 62.166-62.167 62.166zM136.6 887.396h149.199V738.197H136.6v149.199zM919.893 570.021H99.3c-20.605 0-37.3-16.695-37.3-37.3s16.695-37.3 37.3-37.3h820.592c20.604 0 37.3 16.695 37.3 37.3s-16.695 37.3-37.299 37.3z" p-id="7652" fill="#333"></path></svg>