<?xml version="1.0" standalone="no"?><!DOCTYPE svg PUBLIC "-//W3C//DTD SVG 1.1//EN" "http://www.w3.org/Graphics/SVG/1.1/DTD/svg11.dtd"><svg t="1557752640161" class="icon" style="" viewBox="0 0 1024 1024" version="1.1" xmlns="http://www.w3.org/2000/svg" p-id="1125" xmlns:xlink="http://www.w3.org/1999/xlink" width="200" height="200"><defs><style type="text/css"></style></defs><path d="M960.064 128 800 128c0-70.688-25.312-128-96-128L320 0C249.312 0 224 57.312 224 128L63.936 128C46.304 128 32 142.208 32 160c0 17.664 14.208 32 32 32 17.664 0 32 14.304 32 32.032L96 960c0 35.36 28.704 64 64.192 64l703.616 0C899.264 1024 928 995.52 928 960L928 224.032C928 206.336 942.208 192 960 192c17.664 0 32-14.208 32-32C992 142.336 977.696 128 960.064 128zM320 64l384 0c35.328 0 32 28.64 32 64L288 128C288 92.64 284.672 64 320 64zM864 927.744C864 945.568 849.408 960 832.16 960L191.84 960C174.272 960 160 945.632 160 927.744L160 224.096C160 206.048 174.368 192 192.096 192l639.84 0C849.952 192 864 206.368 864 224.096L864 927.744z" p-id="1126" fill="#8a8a8a"></path><path d="M320 320c-17.664 0-32 14.592-32 31.84l0 448.288C288 817.728 302.208 832 320 832c17.664 0 32-14.592 32-31.84L352 351.84C352 334.272 337.792 320 320 320z" p-id="1127" fill="#8a8a8a"></path><path d="M512 320c-17.664 0-32 14.592-32 31.84l0 448.288C480 817.728 494.208 832 512 832c17.664 0 32-14.592 32-31.84L544 351.84C544 334.272 529.792 320 512 320z" p-id="1128" fill="#8a8a8a"></path><path d="M704 320c-17.664 0-32 14.592-32 31.84l0 448.288C672 817.728 686.208 832 704 832c17.664 0 32-14.592 32-31.84L736 351.84C736 334.272 721.792 320 704 320z" p-id="1129" fill="#8a8a8a"></path></svg>