<?xml version="1.0" standalone="no"?><!DOCTYPE svg PUBLIC "-//W3C//DTD SVG 1.1//EN" "http://www.w3.org/Graphics/SVG/1.1/DTD/svg11.dtd"><svg t="1557212710673" class="icon" style="" viewBox="0 0 1024 1024" version="1.1" xmlns="http://www.w3.org/2000/svg" p-id="11173" xmlns:xlink="http://www.w3.org/1999/xlink" width="48" height="48"><defs><style type="text/css"></style></defs><path d="M744.448 232.448v24.576L727.04 271.36l-22.528 17.408H356.864V180.224h388.096l-0.512 52.224c0-0.512 0-0.512 0 0" fill="#cad8f6" p-id="11174"></path><path d="M924.16 855.04c0 16.896-54.784 30.72-71.68 30.72h-619.52c-16.896 0-30.72-13.824-30.72-30.72V275.968c0-16.896 13.824-30.72 30.72-30.72h44.032V250.88c0 22.528 18.432 40.96 40.96 40.96h388.096c22.528 0 40.96-18.432 40.96-40.96v-5.632h105.472c16.896 0 30.72 13.824 30.72 30.72l40.96 26.624V855.04z" fill="#cad8f6" p-id="11175"></path><path d="M903.68 719.872m-20.48 0a20.48 20.48 0 1 0 40.96 0 20.48 20.48 0 1 0-40.96 0Z" fill="#cad8f6" p-id="11176"></path><path d="M903.68 773.632c-11.264 0-20.48 9.216-20.48 20.48v61.44c0 16.896-13.824 30.72-30.72 30.72h-680.96c-16.896 0-30.72-13.824-30.72-30.72V245.248c0-16.896 13.824-30.72 30.72-30.72h105.472v36.864c0 22.528 18.432 40.96 40.96 40.96h388.096c22.528 0 40.96-18.432 40.96-40.96v-36.864h105.472c16.896 0 30.72 13.824 30.72 30.72v397.824c0 11.264 9.216 20.48 20.48 20.48s20.48-9.216 20.48-20.48V245.248c0-39.424-32.256-71.68-71.68-71.68h-105.472v-36.864c0-22.528-18.432-40.96-40.96-40.96H318.464c-22.528 0-40.96 18.432-40.96 40.96v36.864H171.52c-39.424 0-71.68 32.256-71.68 71.68V855.04c0 39.424 32.256 71.68 71.68 71.68h680.96c39.424 0 71.68-32.256 71.68-71.68v-61.44c0-10.752-9.216-19.968-20.48-19.968zM318.464 137.216H706.56V250.88H318.464V137.216z" fill="#cad8f6" p-id="11177"></path><path d="M751.616 401.92l-290.304 290.304-143.36-143.36c-8.192-8.192-20.992-8.192-29.184 0-8.192 8.192-8.192 20.992 0 29.184l143.36 143.36c8.192 8.192 18.432 11.776 29.184 11.776 10.24 0 20.992-4.096 29.184-11.776l290.304-290.304c8.192-8.192 8.192-20.992 0-29.184-8.192-8.192-20.992-8.192-29.184 0z" fill="#cad8f6" p-id="11178"></path></svg>