<?xml version="1.0" standalone="no"?><!DOCTYPE svg PUBLIC "-//W3C//DTD SVG 1.1//EN" "http://www.w3.org/Graphics/SVG/1.1/DTD/svg11.dtd"><svg t="1557212658953" class="icon" style="" viewBox="0 0 1026 1024" version="1.1" xmlns="http://www.w3.org/2000/svg" p-id="10032" xmlns:xlink="http://www.w3.org/1999/xlink" width="48.09375" height="48"><defs><style type="text/css"></style></defs><path d="M1018.478 773.073h-20.665c11.987-5.54 20.323-17.556 20.323-31.63h0.030v-511.3c-0.030-19.298-15.673-34.914-34.968-34.942h-506.482c-19.324 0-34.968 15.644-34.968 34.941v68.621c-3.081-11.987-13.899-20.952-26.83-20.952h-195.308c-15.27 0-35.51 9.822-44.986 21.809l-113.040 143.468c-9.45 12.046-17.185 34.37-17.185 49.642v238.666h-9.877c-17.754 0-32.142 14.387-32.142 32.142v66.852c0 17.755 14.388 32.142 32.142 32.142h55.634c11.105 3.312 23.779 3.996 33.086 0.772-1.201 60.486 42.36 114.040 103.788 123.516 66.97 10.333 129.595-35.567 139.929-102.534 1.572-10.105 1.713-20.096 0.8-29.86 21.637 10.676 58.888 6.68 57.803-10.733-0.113-0.856-0.313-1.713-0.426-2.57h188.656c-0.201 17.928 36.454 29.175 56.664 22.18-1.201 60.487 42.39 114.040 103.817 123.517 66.968 10.333 129.596-35.567 139.93-102.534 1.57-10.105 1.683-20.096 0.827-29.86 21.61 10.676 58.86 6.68 57.777-10.733-0.114-0.856-0.313-1.713-0.427-2.57h46.1c3.825 0 6.965-3.11 6.965-6.907v-54.178c-0.001-3.825-3.14-6.964-6.967-6.964zM460.132 427.503h276.435v266.098c-35.796 11.733-67.195 34.225-89.49 64.4h-170.36c-9.16 0-16.585-7.424-16.585-16.559v-313.94zM983.198 758.002h-44.702c-27.69-37.453-69.595-64.401-119.348-71.65-2.54-0.4-5.054-0.457-7.564-0.743v-258.107h188.2v313.94c-0.030 9.135-7.423 16.56-16.586 16.56zM999.782 230.142v122.23h-188.199v-138.786h171.615c9.134 0 16.556 7.421 16.584 16.556zM476.716 213.586h259.85v138.786h-276.434v-122.23c0-9.135 7.424-16.556 16.584-16.556zM366.246 593.464h-43.985c-9.65 0-17.471-1.14-17.471-9.532 0-8.365 7.822-20.809 17.47-20.809h43.986c9.62 0 17.443 12.444 17.443 20.81 0 8.391-7.822 9.531-17.443 9.531zM82.764 489.504c0-11.476 0.798-14.788 7.965-23.75l106.53-132.364c7.165-8.936 22.409-16.273 33.884-16.273h130.28c11.476 0 20.84 9.392 20.84 20.868v170.471c0 11.447-9.363 20.839-20.84 20.839h-260.533c-11.447 0-18.126-6.021-18.126-17.468v-22.324zM315.979 876.405c-5.996 38.825-42.306 65.398-81.097 59.432-38.795-5.993-65.342-42.303-59.376-81.067 5.966-38.792 42.276-65.398 81.070-59.432 38.792 5.995 65.398 42.304 59.403 81.067zM863.221 876.405c-5.966 38.825-42.276 65.398-81.097 59.432-38.765-5.993-65.37-42.303-59.375-81.067 5.995-38.792 42.305-65.398 81.070-59.432 38.792 5.995 65.368 42.304 59.402 81.067z" fill="#cad8f6" p-id="10033"></path></svg>