<?xml version="1.0" standalone="no"?><!DOCTYPE svg PUBLIC "-//W3C//DTD SVG 1.1//EN" "http://www.w3.org/Graphics/SVG/1.1/DTD/svg11.dtd"><svg t="1557216531754" class="icon" style="" viewBox="0 0 1024 1024" version="1.1" xmlns="http://www.w3.org/2000/svg" p-id="2047" xmlns:xlink="http://www.w3.org/1999/xlink" width="48" height="48"><defs><style type="text/css"></style></defs><path d="M341.333333 238.933333v34.133334c0 18.978133 15.223467 34.133333 33.962667 34.133333h273.408c18.432 0 33.962667-15.291733 33.962667-34.133333V238.933333h68.437333C788.718933 238.933333 819.2 269.312 819.2 307.2v443.733333c0 37.717333-30.481067 68.266667-68.096 68.266667H272.896A68.061867 68.061867 0 0 1 204.8 750.933333V307.2c0-37.717333 30.481067-68.266667 68.096-68.266667H341.333333z m136.533334 409.6h102.4c56.354133 0 102.4-45.841067 102.4-102.4 0-56.4224-45.841067-102.4-102.4-102.4h-136.533334v-34.133333l-102.4 68.266667 102.4 68.266666v-34.133333h136.465067a34.0992 34.0992 0 1 1 0 68.266667H477.866667a34.133333 34.133333 0 0 0 0 68.266666z" fill="#cad8f6" p-id="2048"></path><path d="M682.666667 375.466667V272.964267A34.133333 34.133333 0 0 0 648.704 238.933333h-273.408c-18.432 0-33.962667 15.223467-33.962667 34.030934V375.466667a34.0992 34.0992 0 0 1-34.133333-34.133334V238.933333c0-18.8416 15.5648-34.133333 34.2016-34.133333h341.1968A34.0992 34.0992 0 0 1 716.8 238.933333v102.4c0 18.8416-15.496533 34.0992-34.133333 34.133334z" fill="#cad8f6" p-id="2049"></path></svg>